HIERARCHY
ROOT hip
{
	OFFSET 0.000000 0.000000 0.000000 
	CHANNELS 6 Xposition Yposition Zposition Zrotation Yrotation Xrotation
	JOINT abdomen
	{
		OFFSET 0.000000 20.688101 -0.731520 
		CHANNELS 3 Zrotation Xrotation Yrotation
		JOINT chest
		{
			OFFSET 0.000000 11.704300 -0.487680 
			CHANNELS 3 Zrotation Xrotation Yrotation
			JOINT neck
			{
				OFFSET 0.000000 22.189400 -2.194560 
				CHANNELS 3 Zrotation Xrotation Yrotation
				JOINT head
				{
					OFFSET -0.243840 7.071330 1.219200 
					CHANNELS 3 Zrotation Xrotation Yrotation
					End Site
					{
						OFFSET 1.000000 0.000000 0.000000 
					}
				}
			}
			JOINT rCollar
			{
				OFFSET -2.682240 19.263399 -4.876800 
				CHANNELS 3 Zrotation Xrotation Yrotation
				JOINT rShldr
				{
					OFFSET -8.778240 -1.950730 1.463040 
					CHANNELS 3 Zrotation Xrotation Yrotation
					JOINT rForeArm
					{
						OFFSET -28.174200 -1.711500 0.487680 
						CHANNELS 3 Zrotation Xrotation Yrotation
						JOINT rHand
						{
							OFFSET -22.587900 0.773209 7.071360 
							CHANNELS 3 Zrotation Xrotation Yrotation
							End Site
							{
								OFFSET -1.782710 -1.182140 1.430490 
							}
						}
					}
				}
			}
			JOINT lCollar
			{
				OFFSET 2.682240 19.263399 -4.876800 
				CHANNELS 3 Zrotation Xrotation Yrotation
				JOINT lShldr
				{
					OFFSET 8.778240 -1.950730 1.463040 
					CHANNELS 3 Zrotation Xrotation Yrotation
					JOINT lForeArm
					{
						OFFSET 28.174200 -1.711500 0.487680 
						CHANNELS 3 Zrotation Xrotation Yrotation
						JOINT lHand
						{
							OFFSET 22.587900 0.773209 7.071360 
							CHANNELS 3 Zrotation Xrotation Yrotation
							End Site
							{
								OFFSET 1.782710 -1.182140 1.430490 
							}
						}
					}
				}
			}
		}
	}
	JOINT rButtock
	{
		OFFSET -8.778240 4.350840 1.219200 
		CHANNELS 3 Zrotation Xrotation Yrotation
		JOINT rThigh
		{
			OFFSET 0.000000 -1.706870 -2.194560 
			CHANNELS 3 Zrotation Xrotation Yrotation
			JOINT rShin
			{
				OFFSET 0.000000 -36.819901 0.731520 
				CHANNELS 3 Zrotation Xrotation Yrotation
				JOINT rFoot
				{
					OFFSET 0.731520 -45.110401 -5.120640 
					CHANNELS 3 Zrotation Xrotation Yrotation
					End Site
					{
						OFFSET -1.122100 -3.699640 12.103000 
					}
				}
			}
		}
	}
	JOINT lButtock
	{
		OFFSET 8.778240 4.350840 1.219200 
		CHANNELS 3 Zrotation Xrotation Yrotation
		JOINT lThigh
		{
			OFFSET 0.000000 -1.706870 -2.194560 
			CHANNELS 3 Zrotation Xrotation Yrotation
			JOINT lShin
			{
				OFFSET 0.000000 -36.819901 0.731520 
				CHANNELS 3 Zrotation Xrotation Yrotation
				JOINT lFoot
				{
					OFFSET -0.731520 -45.110401 -5.120640 
					CHANNELS 3 Zrotation Xrotation Yrotation
					End Site
					{
						OFFSET 1.122100 -3.699640 12.103000 
					}
				}
			}
		}
	}
}
MOTION
Frames: 17
Frame Time: 0.008333
0.000000 85.096603 0.000000 0.000000 0.000000 0.000000 0.283894 -0.002914 0.008161 0.078459 -0.004733 0.013594 0.000000 0.000000 0.000000 0.000000 0.000000 0.000000 0.000000 0.000000 0.000000 0.000000 -0.000000 0.000000 0.000000 -0.000000 0.000000 0.000000 0.000000 0.000000 0.000000 0.000000 -0.000000 0.000000 0.000000 -0.000000 0.000000 0.000000 -0.000000 0.000000 -0.000000 0.000000 -0.000000 0.000000 -0.000000 0.668912 -3.858530 -0.057248 -0.003418 1.437940 -0.027440 -0.455255 2.421050 0.100330 0.000000 0.000000 0.000000 -0.234825 -2.724190 0.029939 0.006626 -0.616662 0.057973 0.449440 3.341270 -0.117941 
0.004299 83.869499 -0.555504 -4.219200 9.675300 3.885900 1.853420 0.217396 0.581025 0.100650 -0.653433 0.197491 3.074550 -0.673833 3.047820 -3.127250 -3.437840 4.704300 -0.000000 0.000000 -0.000000 19.226299 2.169450 -6.376340 -17.392000 -14.888500 15.008600 0.000418 0.550806 0.077409 -0.000000 0.000000 -0.000000 -21.301600 10.645600 -0.170680 4.645380 -2.202910 -7.152890 -0.100879 -7.055440 0.964637 -0.000000 0.000000 -0.000000 1.494070 -4.498130 1.183500 0.001683 4.137810 0.031871 -0.569361 -0.100869 -2.535040 0.000000 0.000000 0.000000 1.782700 -5.699080 -5.225370 0.000619 5.033450 -0.064548 0.887530 -0.620096 3.824850 
0.109098 83.967903 -0.596001 -3.988200 9.729300 3.770400 3.522660 0.443367 1.187920 0.124613 -1.338010 0.392065 6.397700 -1.379150 6.271300 -5.810130 -6.987060 9.736590 -0.000000 0.000000 -0.000000 40.074699 4.365010 -13.149800 -26.839800 -27.090401 33.950401 -0.000871 1.097000 0.154200 -0.000000 0.000000 -0.000000 -43.745499 21.897100 -0.369845 8.965610 -4.419130 -14.752000 0.058467 -14.502900 2.033630 -0.000000 0.000000 -0.000000 2.415650 -5.199530 2.501400 0.000887 7.028770 0.095638 -0.944971 -2.769250 -5.331850 0.000000 0.000000 0.000000 3.334610 -8.744470 -10.852300 0.020776 11.007000 -0.197390 1.946410 -4.778140 8.030290 
0.207100 84.064903 -0.617599 -3.769300 9.728500 3.631900 4.979250 0.657751 1.726850 0.157531 -1.950750 0.565574 9.437810 -1.998630 9.148440 -7.685070 -10.033800 14.310900 -0.000000 0.000000 -0.000000 59.104500 6.186290 -19.231600 -28.365801 -31.563801 53.860500 -0.003214 1.652410 0.232312 -0.000000 0.000000 -0.000000 -63.685799 31.935699 -0.592980 12.320900 -6.197620 -21.575100 0.453470 -21.141399 3.079440 -0.000000 0.000000 -0.000000 3.227790 -5.768420 3.672430 -0.005079 9.537510 0.152331 -1.493260 -5.097220 -7.836780 0.000000 0.000000 0.000000 4.176930 -11.279000 -15.974800 0.063369 16.333401 -0.321824 3.400120 -8.367840 11.837200 
0.319500 84.169701 -0.621399 -3.508900 9.697600 3.495800 5.912970 0.843404 2.095810 0.204037 -2.384000 0.686145 11.619900 -2.425260 11.155000 -8.733770 -12.090300 17.553101 -0.000000 0.000000 -0.000000 72.599701 7.376590 -23.488199 -27.897600 -30.033899 67.302803 -0.006108 2.230860 0.313688 -0.000000 0.000000 -0.000000 -77.524803 38.943298 -0.803457 14.392100 -7.275230 -26.346399 0.891143 -25.781300 3.892430 -0.000000 0.000000 -0.000000 3.701230 -6.013670 4.469790 -0.011310 11.090700 0.189510 -1.974140 -6.624680 -9.573650 0.000000 0.000000 0.000000 4.408310 -12.873300 -19.625500 0.108274 20.042299 -0.412961 4.669190 -10.719700 14.498800 
0.441900 84.274300 -0.622498 -3.239200 9.669900 3.368100 6.087120 1.000410 2.225470 0.276475 -2.566640 0.732503 12.543600 -2.592830 11.938000 -9.168370 -12.957200 18.799801 -0.000000 0.000000 -0.000000 77.928497 7.909080 -25.141300 -27.869801 -28.443300 71.972000 -0.009740 2.847100 0.400446 -0.000000 0.000000 -0.000000 -82.915604 41.740700 -0.933712 15.125600 -7.636550 -28.171000 1.105590 -27.620600 4.239240 -0.000000 0.000000 -0.000000 3.641420 -5.774240 4.739080 -0.012143 11.261100 0.197467 -2.136160 -7.059500 -10.195700 0.000000 0.000000 0.000000 4.266430 -13.360300 -21.090799 0.130537 21.482100 -0.447312 5.147180 -11.450700 15.424600 
0.609299 84.447197 -0.612701 -2.761600 9.679000 3.188100 5.721600 1.136480 2.184260 0.365995 -2.570260 0.725790 12.552700 -2.579950 11.846100 -9.288210 -13.029000 18.586500 0.000000 0.000000 -0.000000 77.328102 8.033130 -24.918699 -27.865601 -28.656300 71.497398 -0.014664 3.490040 0.491089 0.000000 0.000000 -0.000000 -82.308296 41.529598 -0.978733 15.002300 -7.561730 -27.876499 1.084970 -27.466200 4.209010 -0.000000 0.000000 -0.000000 3.200460 -5.190990 4.631410 -0.008389 10.446000 0.184413 -2.024790 -6.724530 -10.013900 0.000000 0.000000 0.000000 3.969310 -13.119700 -20.966200 0.130222 21.301500 -0.438174 4.949910 -11.062200 15.080600 
0.683199 84.475304 -0.664200 -2.639500 9.727500 3.113600 5.191190 1.245940 2.076700 0.445027 -2.501270 0.697710 12.182000 -2.501540 11.406900 -9.261780 -12.767500 17.799500 0.000000 -0.000000 -0.000000 74.351196 7.971740 -23.928801 -27.871799 -29.578300 68.936996 -0.020818 4.134840 0.582131 0.000000 -0.000000 -0.000000 -79.317299 40.063801 -0.977556 14.541600 -7.317100 -26.752001 0.972217 -26.547199 4.033340 -0.000000 0.000000 -0.000000 2.663470 -4.527020 4.377040 -0.003819 9.308740 0.164270 -1.817590 -6.096140 -9.525530 0.000000 0.000000 0.000000 3.640230 -12.609500 -20.214600 0.120897 20.480101 -0.412583 4.514960 -10.261500 14.259800 
0.738998 84.497200 -0.703804 -2.619600 9.811600 3.059800 4.869620 1.323070 2.007350 0.486078 -2.466120 0.679972 11.966500 -2.472310 11.147900 -9.245030 -12.631200 17.330200 0.000000 -0.000000 0.000000 72.568100 7.939690 -23.283600 -27.895700 -30.022600 67.284798 -0.027830 4.756640 0.670058 0.000000 -0.000000 0.000000 -77.545998 39.096600 -0.977171 14.263900 -7.169390 -26.086500 0.914824 -26.092100 3.946580 -0.000000 0.000000 -0.000000 2.305570 -4.046290 4.204440 -0.001039 8.512850 0.150641 -1.681850 -5.652730 -9.225220 0.000000 0.000000 0.000000 3.408180 -12.288100 -19.796101 0.116017 19.997499 -0.397560 4.257550 -9.763020 13.747500 
0.780600 84.508102 -0.748901 -2.698500 9.872400 3.006100 4.852110 1.359460 1.994110 0.468112 -2.480420 0.677324 11.979700 -2.517370 11.160300 -9.244980 -12.695400 17.338499 0.000000 -0.000000 0.000000 72.573997 7.948260 -23.160000 -27.882900 -29.954100 67.175400 -0.035631 5.398610 0.760954 0.000000 -0.000000 0.000000 -77.597504 38.862701 -0.980397 14.271400 -7.175580 -26.101801 0.934373 -26.348400 3.991310 -0.000000 0.000000 -0.000000 2.202340 -3.841930 4.153480 -0.000086 8.240000 0.146579 -1.642050 -5.490800 -9.208510 0.000000 0.000000 0.000000 3.328800 -12.251300 -19.874001 0.116884 20.022699 -0.397753 4.235810 -9.721710 13.687300 
0.828999 84.519699 -0.807503 -2.742200 9.910000 2.942400 4.940730 1.360440 1.984550 0.410388 -2.491670 0.674090 11.959500 -2.577230 11.179200 -9.186160 -12.729600 17.375900 0.000000 0.000000 0.000000 72.587097 7.895930 -23.005199 -27.864500 -29.858299 67.024200 -0.044569 6.057380 0.854435 0.000000 0.000000 0.000000 -77.667900 38.504398 -0.966580 14.296000 -7.195810 -26.151600 0.960855 -26.687300 4.050880 -0.000000 0.000000 -0.000000 2.205740 -3.765620 4.109040 0.000337 8.134750 0.144986 -1.616650 -5.365320 -9.223830 0.000000 0.000000 0.000000 3.322730 -12.261300 -19.968201 0.117282 20.063999 -0.399698 4.248120 -9.767510 13.682900 
0.877100 84.529297 -0.868401 -2.782000 9.938800 2.887100 5.068900 1.340930 1.977710 0.345667 -2.504090 0.671341 11.935500 -2.640730 11.198200 -9.123870 -12.745700 17.415501 -0.000000 0.000000 0.000000 72.598602 7.840830 -22.835501 -27.841200 -29.738800 66.834602 -0.053764 6.638360 0.937125 -0.000000 0.000000 0.000000 -77.752602 38.137299 -0.943909 14.328800 -7.222870 -26.218100 0.987973 -27.024599 4.110660 -0.000000 0.000000 -0.000000 2.246480 -3.719980 4.065870 0.000752 8.054920 0.143963 -1.592260 -5.246970 -9.240880 0.000000 0.000000 0.000000 3.350220 -12.293900 -20.062401 0.117543 20.110201 -0.402389 4.272150 -9.843770 13.695700 
0.940800 84.537102 -0.920998 -2.758100 9.979700 2.849000 5.170060 1.315860 1.972630 0.306712 -2.521880 0.670145 11.937200 -2.696720 11.210800 -9.113460 -12.755800 17.430099 -0.000000 0.000000 0.000000 72.598999 7.841380 -22.666599 -27.813900 -29.599600 66.610100 -0.061296 7.046990 0.995464 -0.000000 0.000000 0.000000 -77.847298 37.876900 -0.920280 14.361100 -7.249550 -26.283501 1.008690 -27.276400 4.155590 -0.000000 0.000000 -0.000000 2.255610 -3.607640 4.018800 0.001647 7.858310 0.141622 -1.555790 -5.106380 -9.229420 0.000000 0.000000 0.000000 3.371700 -12.324700 -20.140499 0.117997 20.150101 -0.404817 4.285520 -9.893850 13.687000 
1.000198 84.546600 -0.972298 -2.691900 10.018700 2.819100 5.233860 1.285440 1.966150 0.307061 -2.548510 0.670334 11.980000 -2.741300 11.215400 -9.182080 -12.761000 17.409100 -0.000000 0.000000 0.000000 72.579903 7.927180 -22.492599 -27.779900 -29.429199 66.334297 -0.065735 7.261680 1.026190 -0.000000 0.000000 0.000000 -77.959602 37.752800 -0.892595 14.385200 -7.269360 -26.332500 1.017040 -27.375299 4.173370 -0.000000 0.000000 -0.000000 2.214570 -3.376390 3.967210 0.003337 7.452260 0.136808 -1.495990 -4.911170 -9.171390 0.000000 0.000000 0.000000 3.385780 -12.349200 -20.199100 0.118775 20.177601 -0.406922 4.283530 -9.905680 13.646400 
1.024799 84.557701 -1.026001 -2.748700 10.040900 2.787300 5.293340 1.242970 1.959740 0.327642 -2.580960 0.671489 12.045600 -2.780720 11.215400 -9.296100 -12.755700 17.368099 -0.000000 0.000000 0.000000 72.547699 8.062690 -22.308399 -27.738199 -29.228100 66.012703 -0.067177 7.331680 1.036210 -0.000000 0.000000 0.000000 -78.089104 37.703602 -0.858303 14.407400 -7.287650 -26.378099 1.017680 -27.381201 4.174490 -0.000000 0.000000 -0.000000 2.160480 -3.086900 3.913680 0.005424 6.930850 0.130762 -1.422960 -4.685110 -9.086350 0.000000 0.000000 0.000000 3.410510 -12.379600 -20.246500 0.119685 20.199699 -0.409172 4.277700 -9.908440 13.594400 
1.045198 84.581497 -1.084404 -2.860200 10.090100 2.758200 5.346980 1.192970 1.959430 0.352303 -2.613690 0.674303 12.112800 -2.819090 11.211800 -9.419670 -12.741200 17.319201 -0.000000 0.000000 0.000000 72.514503 8.208730 -22.131300 -27.693100 -29.018000 65.680496 -0.065776 7.268690 1.027180 -0.000000 0.000000 0.000000 -78.219200 37.709099 -0.825858 14.440400 -7.315070 -26.445101 1.019210 -27.400600 4.177930 -0.000000 0.000000 -0.000000 2.107980 -2.811070 3.857850 0.007366 6.432020 0.125185 -1.355360 -4.483040 -9.000480 0.000000 0.000000 0.000000 3.435550 -12.417200 -20.284201 0.120574 20.224800 -0.411350 4.269900 -9.907400 13.539500 
1.086199 84.587196 -1.142998 -2.890800 10.159600 2.731700 5.393320 1.139980 1.971250 0.364895 -2.641150 0.679467 12.160300 -2.860500 11.205600 -9.516960 -12.718900 17.274500 -0.000000 -0.000000 0.000000 72.492798 8.325880 -21.979000 -27.649599 -28.822100 65.371902 -0.061954 7.084420 1.000810 -0.000000 -0.000000 0.000000 -78.333603 37.748798 -0.803749 14.496400 -7.362150 -26.558399 1.030380 -27.539900 4.202710 -0.000000 0.000000 -0.000000 2.071420 -2.620800 3.799210 0.008725 6.093680 0.121751 -1.311170 -4.359950 -8.939770 0.000000 0.000000 0.000000 3.450580 -12.463200 -20.313400 0.121289 20.261000 -0.413242 4.261960 -9.907840 13.489800 
